<?xml version="1.0"?>
<svg width="442.525" height="442.525" xmlns="http://www.w3.org/2000/svg" xmlns:svg="http://www.w3.org/2000/svg" version="1.1" xml:space="preserve">

 <g class="layer">
  <title>Layer 1</title>
  <g id="svg_1">
   <path d="m385.06,205.85c2.42,-8.39 3.17,-17.06 3.17,-25.58c0,-57.76 -46.99,-104.76 -104.75,-104.76c-22.79,0 -44.46,7.2 -62.66,20.82c-17.59,13.15 -30.85,31.9 -37.35,52.78c-0.22,0.69 -0.96,2.28 -3.95,1.78c-0.26,-0.04 -0.54,-0.04 -0.82,-0.05c-0.99,-0.07 -2.05,-0.12 -3.16,-0.12c-34.25,0 -64.81,22.15 -76.52,55.28c-0.18,0.5 -0.71,1.66 -2.13,1.38c-0.14,-0.02 -0.28,-0.05 -0.43,-0.08c-5.19,-1.04 -10.51,-1.57 -15.82,-1.57c-44.47,0 -80.64,36.18 -80.64,80.64c0,44.47 36.17,80.64 80.64,80.64l281.24,0c44.47,0 80.65,-36.17 80.65,-80.64c0,-34.86 -22.83,-66.05 -55.81,-76.72c-0.82,-0.26 -2.52,-0.82 -1.66,-3.8zm-23.18,146.16l-281.24,0c-36.19,0 -65.64,-29.44 -65.64,-65.64c0,-36.19 29.45,-65.64 65.64,-65.64c4.44,0 8.89,0.45 13.23,1.35c1.41,0.29 2.83,0.44 4.22,0.44c7.03,0 12.5,-3.85 14.65,-10.29c9.27,-27.82 34.51,-46.51 62.8,-46.51c0.92,0 1.91,0.07 2.97,0.14c1.15,0.08 2.34,0.16 3.61,0.17l0.27,0c8.69,0 13.84,-4 15.3,-11.89c0.04,-0.23 0.07,-0.44 0.1,-0.58c11.74,-37.71 46.18,-63.05 85.69,-63.05c49.49,0 89.75,40.27 89.75,89.76c0,8.49 -1.24,17.08 -3.69,25.54c-1.2,4.11 -0.93,7.77 0.8,10.88c2.57,4.61 7.19,5.9 9.42,6.52l0.35,0.1c27.92,8.05 47.42,33.98 47.42,63.06c-0.01,36.19 -29.45,65.64 -65.65,65.64z" fill="#00ff00" id="svg_2"/>
   <path d="m189.37,223.19c-4.31,-1.39 -9.3,-2.15 -14.06,-2.15c-22.58,0 -38.35,15.6 -38.35,37.93c0,21.85 14.35,36.54 35.7,36.54c8.5,0 14.68,-1.85 17.61,-2.94c1,-0.38 3.66,-1.38 3.28,-5.5l-1.02,-4.58c-0.46,-2.11 -1.86,-3.37 -3.74,-3.37c-0.83,0 -1.57,0.25 -2.05,0.43c-2.43,0.93 -6.3,2.17 -11.85,2.17c-12.85,0 -21.49,-9.37 -21.49,-23.31c0,-14.33 8.6,-23.58 21.91,-23.58c4.21,0 7.91,0.62 11,1.86l0.16,0.06c0.48,0.21 1.22,0.51 2.09,0.51c1.02,0 2.87,-0.44 3.73,-3.37l1.38,-4.69l0.05,-0.23c0.44,-2.51 -1.27,-4.78 -4.35,-5.78z" fill="#00ff00" id="svg_3"/>
   <path d="m238.29,220.76c-20.93,0 -35.56,15.6 -35.56,37.93c0,21.68 14.17,36.82 34.44,36.82c17.19,0 35.7,-11.87 35.7,-37.94c0,-21.67 -14.22,-36.81 -34.58,-36.81zm-0.56,61.52c-10.75,0 -18.55,-10.1 -18.55,-24.01c0,-12.08 5.82,-24.28 18.83,-24.28c14.45,0 18.27,15.7 18.27,24c0,14.07 -7.8,24.29 -18.55,24.29z" fill="#00ff00" id="svg_4"/>
   <path d="m326.69,283.47l-14.8,0c-2.63,0 -1.33,-1.28 -0.68,-1.91c11.59,-11.32 20.17,-21.27 20.17,-33.53c0,-10.56 -6.85,-21.21 -22.17,-21.21c-6,0 -11.77,1.69 -16.71,4.88c-3.07,1.99 -4.23,4.91 -2.97,7.45l1.24,2.74l0.09,0.18c0.74,1.38 2.09,2.2 3.62,2.2c1.61,0 2.94,-0.86 3.83,-1.44c3.04,-1.98 6.12,-2.97 9.17,-2.97c6.34,0 9.43,3.02 9.43,9.2c-0.09,8.08 -6.65,15.64 -22.33,30.56c-0.74,0.64 -5.06,4.38 -6.99,6.82c-1,1.27 -0.97,2.88 -0.95,4.3l0,0.57c0,3.41 2.92,5.2 5.8,5.2l34.19,0c0.22,0.02 0.53,0.04 0.91,0.04c3.72,0 5.39,-2.38 5.39,-4.74l0,-3c0,-3.46 -3.13,-5.31 -6.24,-5.34z" fill="#00ff00" id="svg_5"/>
  </g>
 </g>
</svg>